HIERARCHY
ROOT Root
{
  OFFSET 0.0 0.0 0.0
  CHANNELS 6 Xposition Yposition Zposition Zrotation Yrotation Xrotation
  JOINT Hips
  {
    OFFSET 0.0 100.0 0.0
    CHANNELS 6 Xposition Yposition Zposition Zrotation Yrotation Xrotation
    JOINT Spine1
    {
      OFFSET 5.003913 -0.037094 -0.013727
      CHANNELS 3 Zrotation Yrotation Xrotation
      JOINT Spine2
      {
        OFFSET 7.125363 -1e-06 0.0
        CHANNELS 3 Zrotation Yrotation Xrotation
        JOINT Chest
        {
          OFFSET 7.594027 1e-06 0.0
          CHANNELS 3 Zrotation Yrotation Xrotation
          JOINT Neck1
          {
            OFFSET 26.313086 -0.460272 -0.181672
            CHANNELS 3 Zrotation Yrotation Xrotation
            JOINT Neck2
            {
              OFFSET 8.045911 0.0 0.0
              CHANNELS 3 Zrotation Yrotation Xrotation
              JOINT Head
              {
                OFFSET 6.432774 0.0 0.0
                CHANNELS 3 Zrotation Yrotation Xrotation
                JOINT HeadEnd
                {
                  OFFSET 16.169773 0.06451 0.00362
                  CHANNELS 3 Zrotation Yrotation Xrotation
                }
                JOINT Jaw
                {
                  OFFSET 0.108741 3.12938 0.002639
                  CHANNELS 3 Zrotation Yrotation Xrotation
                }
                JOINT LeftEye
                {
                  OFFSET 4.45173 8.166359 3.206392
                  CHANNELS 3 Zrotation Yrotation Xrotation
                }
                JOINT RightEye
                {
                  OFFSET 4.436895 8.135758 -3.222429
                  CHANNELS 3 Zrotation Yrotation Xrotation
                }
              }
            }
          }
          JOINT LeftShoulder
          {
            OFFSET 23.218927 5.195579 1.621656
            CHANNELS 3 Zrotation Yrotation Xrotation
            JOINT LeftArm
            {
              OFFSET 15.902118 2e-06 -2e-06
              CHANNELS 3 Zrotation Yrotation Xrotation
              JOINT LeftForeArm
              {
                OFFSET 28.739307 0.0 -1e-06
                CHANNELS 3 Zrotation Yrotation Xrotation
                JOINT LeftHand
                {
                  OFFSET 27.093981 -4e-06 0.0
                  CHANNELS 3 Zrotation Yrotation Xrotation
                  JOINT LeftHandThumb1
                  {
                    OFFSET 2.276781 3.380274 0.83384
                    CHANNELS 3 Zrotation Yrotation Xrotation
                    JOINT LeftHandThumb2
                    {
                      OFFSET 4.705309 -1e-06 -1e-06
                      CHANNELS 3 Zrotation Yrotation Xrotation
                      JOINT LeftHandThumb3
                      {
                        OFFSET 2.798515 0.0 3e-06
                        CHANNELS 3 Zrotation Yrotation Xrotation
                        JOINT LeftHandThumbEnd
                        {
                          OFFSET 3.180793 4e-06 -4e-06
                          CHANNELS 3 Zrotation Yrotation Xrotation
                        }
                      }
                    }
                  }
                  JOINT LeftHandIndex1
                  {
                    OFFSET 3.247786 2.352677 0.137192
                    CHANNELS 3 Zrotation Yrotation Xrotation
                    JOINT LeftHandIndex2
                    {
                      OFFSET 6.367095 1e-06 0.0
                      CHANNELS 3 Zrotation Yrotation Xrotation
                      JOINT LeftHandIndex3
                      {
                        OFFSET 3.662364 0.0 0.0
                        CHANNELS 3 Zrotation Yrotation Xrotation
                        JOINT LeftHandIndex4
                        {
                          OFFSET 2.329242 4e-06 -4e-06
                          CHANNELS 3 Zrotation Yrotation Xrotation
                          JOINT LeftHandIndexEnd
                          {
                            OFFSET 2.767823 1e-06 0.0
                            CHANNELS 3 Zrotation Yrotation Xrotation
                          }
                        }
                      }
                    }
                  }
                  JOINT LeftHandMiddle1
                  {
                    OFFSET 3.163612 0.945023 -0.406112
                    CHANNELS 3 Zrotation Yrotation Xrotation
                    JOINT LeftHandMiddle2
                    {
                      OFFSET 6.276789 3e-06 0.0
                      CHANNELS 3 Zrotation Yrotation Xrotation
                      JOINT LeftHandMiddle3
                      {
                        OFFSET 4.35652 -1e-06 4e-06
                        CHANNELS 3 Zrotation Yrotation Xrotation
                        JOINT LeftHandMiddle4
                        {
                          OFFSET 2.996877 0.0 8e-06
                          CHANNELS 3 Zrotation Yrotation Xrotation
                          JOINT LeftHandMiddleEnd
                          {
                            OFFSET 2.323256 3e-06 -4e-06
                            CHANNELS 3 Zrotation Yrotation Xrotation
                          }
                        }
                      }
                    }
                  }
                  JOINT LeftHandRing1
                  {
                    OFFSET 2.882606 -0.309162 0.107445
                    CHANNELS 3 Zrotation Yrotation Xrotation
                    JOINT LeftHandRing2
                    {
                      OFFSET 6.033198 0.0 4e-06
                      CHANNELS 3 Zrotation Yrotation Xrotation
                      JOINT LeftHandRing3
                      {
                        OFFSET 4.350578 3e-06 0.0
                        CHANNELS 3 Zrotation Yrotation Xrotation
                        JOINT LeftHandRing4
                        {
                          OFFSET 2.651321 2e-06 -7e-06
                          CHANNELS 3 Zrotation Yrotation Xrotation
                          JOINT LeftHandRingEnd
                          {
                            OFFSET 1.937663 1e-06 -4e-06
                            CHANNELS 3 Zrotation Yrotation Xrotation
                          }
                        }
                      }
                    }
                  }
                  JOINT LeftHandPinky1
                  {
                    OFFSET 2.865315 -1.525436 0.575687
                    CHANNELS 3 Zrotation Yrotation Xrotation
                    JOINT LeftHandPinky2
                    {
                      OFFSET 5.54936 1e-06 -8e-06
                      CHANNELS 3 Zrotation Yrotation Xrotation
                      JOINT LeftHandPinky3
                      {
                        OFFSET 3.070974 0.0 -4e-06
                        CHANNELS 3 Zrotation Yrotation Xrotation
                        JOINT LeftHandPinky4
                        {
                          OFFSET 1.549672 1e-06 0.0
                          CHANNELS 3 Zrotation Yrotation Xrotation
                          JOINT LeftHandPinkyEnd
                          {
                            OFFSET 1.952123 0.0 0.0
                            CHANNELS 3 Zrotation Yrotation Xrotation
                          }
                        }
                      }
                    }
                  }
                }
              }
            }
          }
          JOINT RightShoulder
          {
            OFFSET 23.161716 5.296122 -1.380114
            CHANNELS 3 Zrotation Yrotation Xrotation
            JOINT RightArm
            {
              OFFSET -16.027195 -2e-06 1.1e-05
              CHANNELS 3 Zrotation Yrotation Xrotation
              JOINT RightForeArm
              {
                OFFSET -28.736639 4e-06 2e-06
                CHANNELS 3 Zrotation Yrotation Xrotation
                JOINT RightHand
                {
                  OFFSET -27.133619 6e-06 0.0
                  CHANNELS 3 Zrotation Yrotation Xrotation
                  JOINT RightHandThumb1
                  {
                    OFFSET -2.274328 -3.351035 -0.83067
                    CHANNELS 3 Zrotation Yrotation Xrotation
                    JOINT RightHandThumb2
                    {
                      OFFSET -4.703594 -3e-06 2e-06
                      CHANNELS 3 Zrotation Yrotation Xrotation
                      JOINT RightHandThumb3
                      {
                        OFFSET -2.794935 -4e-06 -3e-06
                        CHANNELS 3 Zrotation Yrotation Xrotation
                        JOINT RightHandThumbEnd
                        {
                          OFFSET -3.183852 4e-06 1e-06
                          CHANNELS 3 Zrotation Yrotation Xrotation
                        }
                      }
                    }
                  }
                  JOINT RightHandIndex1
                  {
                    OFFSET -3.253496 -2.33755 -0.127667
                    CHANNELS 3 Zrotation Yrotation Xrotation
                    JOINT RightHandIndex2
                    {
                      OFFSET -6.344434 0.0 0.0
                      CHANNELS 3 Zrotation Yrotation Xrotation
                      JOINT RightHandIndex3
                      {
                        OFFSET -3.654871 0.0 -8e-06
                        CHANNELS 3 Zrotation Yrotation Xrotation
                        JOINT RightHandIndex4
                        {
                          OFFSET -2.327586 -1e-06 0.0
                          CHANNELS 3 Zrotation Yrotation Xrotation
                          JOINT RightHandIndexEnd
                          {
                            OFFSET -2.770001 3e-06 8e-06
                            CHANNELS 3 Zrotation Yrotation Xrotation
                          }
                        }
                      }
                    }
                  }
                  JOINT RightHandMiddle1
                  {
                    OFFSET -3.168223 -0.944764 0.411762
                    CHANNELS 3 Zrotation Yrotation Xrotation
                    JOINT RightHandMiddle2
                    {
                      OFFSET -6.266691 -1e-06 -4e-06
                      CHANNELS 3 Zrotation Yrotation Xrotation
                      JOINT RightHandMiddle3
                      {
                        OFFSET -4.348901 0.0 0.0
                        CHANNELS 3 Zrotation Yrotation Xrotation
                        JOINT RightHandMiddle4
                        {
                          OFFSET -3.00024 2e-06 -4e-06
                          CHANNELS 3 Zrotation Yrotation Xrotation
                          JOINT RightHandMiddleEnd
                          {
                            OFFSET -2.321477 -4e-06 -4e-06
                            CHANNELS 3 Zrotation Yrotation Xrotation
                          }
                        }
                      }
                    }
                  }
                  JOINT RightHandRing1
                  {
                    OFFSET -2.885654 0.293261 -0.119232
                    CHANNELS 3 Zrotation Yrotation Xrotation
                    JOINT RightHandRing2
                    {
                      OFFSET -6.032835 -1e-06 -4e-06
                      CHANNELS 3 Zrotation Yrotation Xrotation
                      JOINT RightHandRing3
                      {
                        OFFSET -4.33881 0.0 -4e-06
                        CHANNELS 3 Zrotation Yrotation Xrotation
                        JOINT RightHandRing4
                        {
                          OFFSET -2.654903 -4e-06 -4e-06
                          CHANNELS 3 Zrotation Yrotation Xrotation
                          JOINT RightHandRingEnd
                          {
                            OFFSET -1.935122 0.0 4e-06
                            CHANNELS 3 Zrotation Yrotation Xrotation
                          }
                        }
                      }
                    }
                  }
                  JOINT RightHandPinky1
                  {
                    OFFSET -2.866241 1.503904 -0.60527
                    CHANNELS 3 Zrotation Yrotation Xrotation
                    JOINT RightHandPinky2
                    {
                      OFFSET -5.553177 -2e-06 0.0
                      CHANNELS 3 Zrotation Yrotation Xrotation
                      JOINT RightHandPinky3
                      {
                        OFFSET -3.062664 -1e-06 -4e-06
                        CHANNELS 3 Zrotation Yrotation Xrotation
                        JOINT RightHandPinky4
                        {
                          OFFSET -1.546529 2e-06 4e-06
                          CHANNELS 3 Zrotation Yrotation Xrotation
                          JOINT RightHandPinkyEnd
                          {
                            OFFSET -1.952341 0.0 -4e-06
                            CHANNELS 3 Zrotation Yrotation Xrotation
                          }
                        }
                      }
                    }
                  }
                }
              }
            }
          }
        }
      }
    }
    JOINT LeftLeg
    {
      OFFSET -8.443107 2.567604 10.043214
      CHANNELS 3 Zrotation Yrotation Xrotation
      JOINT LeftShin
      {
        OFFSET 43.229198 1e-06 -1e-06
        CHANNELS 3 Zrotation Yrotation Xrotation
        JOINT LeftFoot
        {
          OFFSET 42.298611 1e-06 1e-06
          CHANNELS 3 Zrotation Yrotation Xrotation
          JOINT LeftToeBase
          {
            OFFSET 14.165858 1e-06 0.0
            CHANNELS 3 Zrotation Yrotation Xrotation
            JOINT LeftToeEnd
            {
              OFFSET 6.7141 -0.234461 0.0
              CHANNELS 3 Zrotation Yrotation Xrotation
            }
          }
        }
      }
    }
    JOINT RightLeg
    {
      OFFSET -8.303923 2.592729 -10.047278
      CHANNELS 3 Zrotation Yrotation Xrotation
      JOINT RightShin
      {
        OFFSET -43.369682 0.0 1e-06
        CHANNELS 3 Zrotation Yrotation Xrotation
        JOINT RightFoot
        {
          OFFSET -42.260784 4e-06 2e-06
          CHANNELS 3 Zrotation Yrotation Xrotation
          JOINT RightToeBase
          {
            OFFSET -14.222245 -2e-06 -1e-06
            CHANNELS 3 Zrotation Yrotation Xrotation
            JOINT RightToeEnd
            {
              OFFSET -6.660062 0.232574 -2e-06
              CHANNELS 3 Zrotation Yrotation Xrotation
            }
          }
        }
      }
    }
  }
}
MOTION
Frames: 4
Frame Time: 0.03333333333333333
0.0 0.0 0.0 0.0 -0.0 0.0 -0.399827 100.295761 0.639797 91.220901 -0.740097 89.997513 -4.453464 -0.415529 -0.167497 -12.567906 -0.760053 -0.138733 17.580114 -0.396372 -2.172592 14.774886 -3.098704 2.498891 -2.501812 -0.795323 -4.960307 -29.194193 -2.838245 -6.471877 5e-06 -0.0 -1e-06 -0.000528 0.074707 0.102228 0.151988 0.090819 0.102603 0.151354 0.049207 0.101985 -142.495895 -67.352119 164.268753 40.698006 -49.433914 3.61037 18.381433 0.008667 -0.027929 1.994596 -0.089794 -18.923948 17.636629 -26.322721 52.411182 -19.46666 -14.395596 29.410389 -0.0 -8.774822 -1e-06 15.9931 -17.876137 6.049493 -0.609776 -1.795653 -3.889326 -4.80709 -11.046811 -2.93785 5e-06 -20.976015 -1e-06 -5.019969 -25.03356 -4.031882 5e-06 0.0 0.0 -10.634533 -5.68697 -3.565587 10.573272 -17.922951 -3.113902 2e-06 -13.821205 -0.0 -0.501776 -31.181501 -4.027017 -11.521554 -59.663097 7.312956 -13.982713 -7.150198 -2.875041 13.772729 -8.401491 -3.218241 0.347734 -34.211544 0.771654 -0.963028 -17.733366 2.621017 1e-06 -1e-06 0.0 -17.346416 -20.095217 -4.201782 21.757557 -1.638373 3.866427 2e-06 -6.338825 0.0 -1.697588 -22.591745 -6.194007 0.0 -4e-06 -1e-06 21.022541 -66.348328 -179.807205 20.913694 -52.7799 6.917152 27.583435 0.031686 0.287958 -3.688972 6.966632 -23.38805 22.182117 -20.375895 49.933319 -16.701807 -16.74353 28.476522 -4e-06 -12.690601 -1e-06 15.830278 -17.859015 2.911957 -0.105919 -1.513856 -4.275882 -5.039041 -5.61287 -2.953556 5e-06 -11.020523 -2e-06 -6.111297 -15.895332 -3.840471 0.0 1e-06 -0.0 -10.283371 -5.680287 -4.341839 11.028295 -11.302404 -2.372632 -1.384268 -14.238577 -6.320121 -0.625436 -26.924189 -3.8276 -4.046957 -49.579525 -3.593335 -13.708525 -7.363475 -3.720939 18.141148 -14.052739 -3.242674 7e-06 -18.78727 -1e-06 -0.42971 -8.456043 2.555504 -1e-06 -1e-06 -0.0 -15.923532 -20.094479 -5.473586 30.41921 -7.190827 1.735925 3e-06 -8.162922 1e-06 -1.861902 -22.861464 -6.16794 -2e-06 -3e-06 -0.0 -178.466949 -0.33925 -6.611634 6.176368 -0.016053 0.041607 -77.487312 -2.046121 -3.639426 -4.599455 1.41778 2.122105 -1.0 -0.0 -0.0 2.854212 -3.47572 -1.255862 7.207 -0.01868 0.04604 -79.601807 -7.736282 -7.481992 -4.019113 0.619854 1.667359 -1.000002 -0.0 0.0 
0.0 0.0 0.0 0.0 -0.0 0.0 -0.413729 100.312744 0.658398 91.190331 -0.774606 89.966316 -4.473167 -0.415668 -0.180102 -12.544189 -0.722097 -0.067945 17.534988 -0.374665 -2.228148 14.786086 -3.131072 2.490677 -2.482645 -0.783795 -4.977658 -29.199722 -2.903458 -6.414068 6e-06 -0.0 -0.0 -0.002369 0.079929 0.126933 0.170513 0.101877 0.132719 0.162184 0.048896 0.121609 -142.478882 -67.311935 164.289734 40.833454 -49.389 3.278142 18.294302 -0.094295 -0.048339 1.986668 -0.137421 -18.734131 17.636627 -26.322733 52.41119 -19.466658 -14.395597 29.410389 1e-06 -8.774821 -3e-06 15.959164 -17.849888 6.059203 -0.609777 -1.795654 -3.889328 -4.807089 -11.046811 -2.93785 6e-06 -20.976019 1e-06 -5.019969 -25.03356 -4.03188 5e-06 -1e-06 0.0 -10.634536 -5.686971 -3.565588 10.573275 -17.922951 -3.113901 3e-06 -13.821206 -0.0 -0.501777 -31.181501 -4.027014 -11.484825 -59.572392 7.346357 -13.982714 -7.150198 -2.875042 13.772729 -8.40149 -3.218238 0.347734 -34.211544 0.771656 -0.963029 -17.733366 2.621018 1e-06 -0.0 -1e-06 -17.346416 -20.095217 -4.201784 21.757557 -1.638375 3.86643 1e-06 -6.338824 1e-06 -1.697589 -22.591742 -6.194006 0.0 -2e-06 -2e-06 21.065577 -66.351707 -179.759644 21.094049 -52.759216 6.728708 27.502119 0.065968 0.281832 -3.653066 6.876689 -23.196455 22.182121 -20.375898 49.933319 -16.701813 -16.743528 28.476532 -3e-06 -12.690603 -1e-06 15.853363 -17.867949 2.919729 -0.105919 -1.513856 -4.275882 -5.039042 -5.612873 -2.953556 3e-06 -11.020526 -1e-06 -6.1113 -15.895336 -3.840471 -0.0 1e-06 -0.0 -10.283373 -5.680288 -4.341839 11.028298 -11.302406 -2.372632 -1.384269 -14.238584 -6.320121 -0.625439 -26.924198 -3.827601 -4.068212 -49.752533 -3.539099 -13.708527 -7.363477 -3.720939 18.141151 -14.052741 -3.242673 6e-06 -18.787271 -1e-06 -0.42971 -8.456045 2.555503 -1e-06 3e-06 0.0 -15.923538 -20.094486 -5.473585 30.419222 -7.190827 1.735927 3e-06 -8.162927 0.0 -1.861901 -22.861473 -6.167942 -0.0 -2e-06 -1e-06 -178.403687 -0.372251 -6.638524 6.003706 -0.005676 0.083204 -77.390892 -2.042549 -3.701125 -4.63494 1.43828 2.127168 -0.999999 0.0 0.0 2.979724 -3.418408 -1.100329 6.85956 -0.023397 0.051406 -79.482368 -7.876215 -7.465045 -4.024405 0.609141 1.668272 -1.000001 0.0 -0.0 
0.0 0.0 0.0 0.0 -0.0 0.0 -0.424646 100.309441 0.68164 91.182297 -0.814557 89.924629 -4.494872 -0.417084 -0.187025 -12.55365 -0.705924 -0.037327 17.540163 -0.361735 -2.241231 14.772378 -3.164414 2.494641 -2.500181 -0.752099 -5.018949 -29.120296 -2.964281 -6.394414 6e-06 -0.0 -0.0 -0.003539 0.084891 0.141017 0.176794 0.108783 0.150916 0.166268 0.051909 0.131412 -142.456589 -67.307381 164.259079 40.905422 -49.406986 3.042477 18.259794 -0.164996 -0.068452 1.909879 -0.176574 -18.677588 17.636625 -26.322729 52.411182 -19.466656 -14.395594 29.410378 1e-06 -8.774818 -2e-06 15.93786 -17.884989 6.080008 -0.609777 -1.795653 -3.889328 -4.807087 -11.046807 -2.937848 3e-06 -20.976011 2e-06 -5.019969 -25.033548 -4.03188 5e-06 -1e-06 0.0 -10.63453 -5.686968 -3.565587 10.573268 -17.922945 -3.113897 2e-06 -13.821202 -1e-06 -0.501778 -31.181494 -4.027013 -11.521102 -59.55904 7.353145 -13.982711 -7.150197 -2.875042 13.772726 -8.401488 -3.21824 0.347731 -34.211536 0.771657 -0.963029 -17.733366 2.621019 1e-06 2e-06 0.0 -17.346413 -20.095209 -4.201781 21.757551 -1.638373 3.866427 1e-06 -6.338822 1e-06 -1.69759 -22.591736 -6.194005 1e-06 -7e-06 -2e-06 21.078178 -66.345978 -179.722107 21.182449 -52.730785 6.608417 27.457581 0.079576 0.265964 -3.649911 6.900659 -23.167889 22.182114 -20.375891 49.933308 -16.701809 -16.743528 28.476522 -4e-06 -12.6906 -1e-06 15.863529 -17.851032 2.937661 -0.10592 -1.513856 -4.27588 -5.03904 -5.612869 -2.953556 5e-06 -11.02052 -2e-06 -6.111296 -15.895329 -3.840471 -0.0 -0.0 -0.0 -10.283371 -5.680287 -4.341837 11.028293 -11.302403 -2.372633 -1.384269 -14.238577 -6.320119 -0.625438 -26.924183 -3.8276 -4.081952 -49.832947 -3.519291 -13.708523 -7.363474 -3.720938 18.141146 -14.052738 -3.242674 7e-06 -18.787266 -2e-06 -0.42971 -8.456039 2.555502 -0.0 1e-06 0.0 -15.923538 -20.094479 -5.473583 30.41921 -7.190826 1.735926 3e-06 -8.162922 1e-06 -1.861902 -22.861465 -6.16794 -0.0 -3e-06 -1e-06 -178.444763 -0.386334 -6.635478 6.042301 -0.001776 0.103276 -77.440041 -2.046016 -3.733544 -4.620059 1.441457 2.128801 -0.999999 0.0 -0.0 2.926651 -3.409572 -0.986598 6.902251 -0.021154 0.045939 -79.540092 -7.961707 -7.487199 -3.999477 0.605285 1.66993 -1.0 0.0 0.0 
0.0 0.0 0.0 0.0 -0.0 0.0 -0.448789 100.300385 0.696099 91.182739 -0.840196 89.895615 -4.496161 -0.423393 -0.19415 -12.574084 -0.694352 -0.031623 17.558744 -0.35684 -2.220669 14.77533 -3.22062 2.501515 -2.525568 -0.717418 -5.050837 -29.064938 -2.989559 -6.417146 6e-06 -0.0 -1e-06 -0.005908 0.086879 0.14868 0.171343 0.110484 0.161301 0.161736 0.054026 0.135938 -142.462463 -67.314804 164.243622 40.939903 -49.427605 3.029993 18.284122 -0.187882 -0.07409 1.828287 -0.148173 -18.702181 17.636629 -26.322729 52.41119 -19.466661 -14.395598 29.410389 0.0 -8.774822 -2e-06 15.930049 -17.896315 6.090955 -0.609776 -1.795654 -3.889329 -4.807091 -11.046811 -2.93785 4e-06 -20.976017 -2e-06 -5.019971 -25.033558 -4.031884 5e-06 -2e-06 0.0 -10.634537 -5.686972 -3.565589 10.573276 -17.922951 -3.113901 3e-06 -13.821205 -0.0 -0.501778 -31.181505 -4.027019 -11.562393 -59.575405 7.362851 -13.982718 -7.150198 -2.875042 13.772731 -8.401492 -3.21824 0.347734 -34.211555 0.771655 -0.963029 -17.73337 2.621019 1e-06 -1e-06 -1e-06 -17.346422 -20.095217 -4.201782 21.757563 -1.638375 3.866428 2e-06 -6.338825 -0.0 -1.697588 -22.591747 -6.194008 0.0 -4e-06 -2e-06 21.102779 -66.341919 -179.729996 21.249056 -52.724667 6.536267 27.426783 0.100464 0.266443 -3.688321 6.928821 -23.233305 22.182121 -20.375898 49.933327 -16.701817 -16.74353 28.476536 -4e-06 -12.690605 -2e-06 15.871104 -17.836992 2.948912 -0.10592 -1.513856 -4.275882 -5.039042 -5.612872 -2.953558 5e-06 -11.020525 -2e-06 -6.111301 -15.895336 -3.840472 0.0 -0.0 -0.0 -10.283373 -5.680288 -4.341839 11.028297 -11.302406 -2.372633 -1.38427 -14.238583 -6.320121 -0.625438 -26.924194 -3.827602 -4.096483 -49.826454 -3.512133 -13.70853 -7.363478 -3.72094 18.141155 -14.052742 -3.242675 6e-06 -18.78727 -1e-06 -0.429711 -8.456048 2.555503 -1e-06 1e-06 -0.0 -15.923539 -20.094486 -5.473586 30.419218 -7.190827 1.735928 3e-06 -8.162926 1e-06 -1.861903 -22.861469 -6.167943 -1e-06 -4e-06 -2e-06 -178.505539 -0.397871 -6.63819 6.143235 -0.00132 0.107182 -77.522072 -2.047884 -3.742088 -4.598099 1.436399 2.127074 -0.999997 0.0 0.0 2.831118 -3.413096 -0.921765 7.069168 -0.0176 0.034039 -79.562653 -7.970523 -7.509518 -3.976129 0.599955 1.670102 -1.000003 -0.0 0.0 
